<?xml version="1.0" encoding="UTF-8" standalone="no"?>
<!-- Created with Inkscape (http://www.inkscape.org/) -->

<svg
   xmlns:dc="http://purl.org/dc/elements/1.1/"
   xmlns:cc="http://creativecommons.org/ns#"
   xmlns:rdf="http://www.w3.org/1999/02/22-rdf-syntax-ns#"
   xmlns:svg="http://www.w3.org/2000/svg"
   xmlns="http://www.w3.org/2000/svg"
   xmlns:sodipodi="http://sodipodi.sourceforge.net/DTD/sodipodi-0.dtd"
   xmlns:inkscape="http://www.inkscape.org/namespaces/inkscape"
   width="418.75439mm"
   height="267.39264mm"
   viewBox="0 0 418.75439 267.39264"
   version="1.1"
   id="svg8"
   inkscape:version="0.92.4 (5da689c313, 2019-01-14)"
   sodipodi:docname="logo_tween.svg">
  <defs
     id="defs2" />
  <sodipodi:namedview
     id="base"
     pagecolor="#ffffff"
     bordercolor="#666666"
     borderopacity="1.0"
     inkscape:pageopacity="0.0"
     inkscape:pageshadow="2"
     inkscape:zoom="0.175"
     inkscape:cx="1168.2137"
     inkscape:cy="684.05964"
     inkscape:document-units="mm"
     inkscape:current-layer="layer1"
     showgrid="false"
     fit-margin-top="0"
     fit-margin-left="0"
     fit-margin-right="0"
     fit-margin-bottom="0"
     inkscape:window-width="1366"
     inkscape:window-height="715"
     inkscape:window-x="-8"
     inkscape:window-y="-8"
     inkscape:window-maximized="1" />
  <metadata
     id="metadata5">
    <rdf:RDF>
      <cc:Work
         rdf:about="">
        <dc:format>image/svg+xml</dc:format>
        <dc:type
           rdf:resource="http://purl.org/dc/dcmitype/StillImage" />
        <dc:title></dc:title>
      </cc:Work>
    </rdf:RDF>
  </metadata>
  <g
     inkscape:label="Layer 1"
     inkscape:groupmode="layer"
     id="layer1"
     transform="translate(618.01844,-38.256277)">
    <path
       style="fill:#7f003f;fill-opacity:1;stroke:none;stroke-width:0.19805951px;stroke-linecap:butt;stroke-linejoin:miter;stroke-opacity:1"
       d="m -618.01844,235.40246 210.50896,-97.33211 208.24544,99.02976 -82.61912,-1.13175 -125.62632,-97.89801 -129.02162,97.89799 z"
       id="path815"
       inkscape:connector-curvature="0"
       sodipodi:nodetypes="ccccccc" />
    <g
       id="g855"
       transform="matrix(0.54514298,0,0,0.54514298,-595.86763,38.80142)">
      <g
         id="g822">
        <title
           id="title819">background</title>
        <rect
           x="-1"
           y="-1"
           width="582"
           height="402"
           id="canvas_background"
           style="fill:none" />
      </g>
      <g
         id="g833">
        <title
           id="title824">Layer 1</title>
        <circle
           class="st0"
           cx="259.70001"
           cy="68.099998"
           r="45.599998"
           id="svg_2"
           style="fill:#7f003f" />
        <path
           class="st0"
           d="m 194,195.8 c -7,-7.6 -11,-17.7 -10.9,-28.2 0,-1.5 0.1,-3 0.3,-4.4 h -30.3 v 142.3 h 45.6 z"
           id="svg_3"
           inkscape:connector-curvature="0"
           style="fill:#7f003f" />
        <polygon
           class="st0"
           points="231.8,489.5 265.1,351.2 263.2,350.4 211.7,329.9 197.1,489.5 "
           id="svg_4"
           style="fill:#7f003f" />
        <path
           class="st0"
           d="m 236.6,144 c -4.1,-2.1 -8.3,-3.1 -12.5,-3.1 -8.5,0 -16.6,4.1 -21.6,10.8 -0.6,0.8 -1.1,1.6 -1.6,2.4 -1.6,2.7 -2.8,5.7 -3.3,9 -0.3,1.5 -0.4,3 -0.4,4.6 -0.1,8.6 4,16.6 10.6,21.7 1.6,1.2 3.4,2.3 5.4,3.2 l 39.4,15.5 32.3,12.7 26,10.2 83.9,-56.5 -13.8,-22.6 -75.6,33.3 z"
           id="svg_5"
           inkscape:connector-curvature="0"
           style="fill:#7f003f" />
        <polygon
           class="st0"
           points="321.1,358.5 332.6,489.5 367,489.5 380.9,328.6 281.5,274.4 283.9,235.5 247.4,221.1 208.4,205.8 212.7,305.5 213.1,315.4 268.4,337.4 276,340.5 "
           id="svg_6"
           style="fill:#7f003f" />
        <rect
           class="st0"
           height="91.599998"
           width="21.799999"
           x="117.3"
           y="214"
           id="svg_7"
           style="fill:#7f003f" />
        <path
           class="st0"
           d="m 187.6,149.2 c 0.4,-0.8 0.8,-1.5 1.3,-2.3 l 0.4,-0.7 0.5,-0.6 c 0.2,-0.3 0.4,-0.6 0.6,-0.9 l 0.4,-0.7 0.5,-0.7 c 3.8,-5 8.7,-9.1 14.2,-11.9 -2.9,-11.8 -13.5,-20.5 -26.2,-20.5 -14.9,0 -27,12.1 -27,27 0,4 0.9,7.9 2.5,11.3 z"
           id="svg_8"
           inkscape:connector-curvature="0"
           style="fill:#7f003f" />
      </g>
    </g>
    <g
       id="g887"
       transform="matrix(0.41265648,0,0,0.41265648,-536.11844,70.493087)">
      <g
         id="g860">
        <title
           id="title857">background</title>
        <rect
           x="-1"
           y="-1"
           width="582"
           height="402"
           id="canvas_background-7"
           style="fill:none" />
      </g>
      <g
         id="g868">
        <title
           id="title862">Layer 1</title>
        <path
           d="M 256,256"
           id="XMLID_358_"
           inkscape:connector-curvature="0"
           style="fill:#7f003f" />
        <path
           d="M 256,6 C 117.9,6 6,117.9 6,256 6,394.1 117.9,506 256,506 394.1,506 506,394.1 506,256 506,117.9 394.1,6 256,6 Z M 414.6,414.6 C 372.2,457 315.9,480.3 256,480.3 196.1,480.3 139.8,457 97.4,414.6 55.1,372.2 31.8,315.9 31.8,256 31.8,196.1 55.1,139.8 97.4,97.4 139.8,55 196.1,31.7 256,31.7 c 59.9,0 116.2,23.3 158.6,65.7 42.4,42.4 65.7,98.7 65.7,158.6 0,59.9 -23.4,116.2 -65.7,158.6 z"
           id="XMLID_355_"
           inkscape:connector-curvature="0"
           style="fill:#7f003f" />
        <path
           d="M 400.1,111.9 C 361.6,73.4 310.4,52.2 256,52.2 201.6,52.2 150.4,73.4 111.9,111.9 73.4,150.4 52.2,201.6 52.2,256 c 0,54.4 21.2,105.6 59.7,144.1 38.5,38.5 89.7,59.7 144.1,59.7 54.4,0 105.6,-21.2 144.1,-59.7 38.5,-38.5 59.7,-89.7 59.7,-144.1 0,-54.4 -21.2,-105.6 -59.7,-144.1 z M 243.3,76.4 h 25.4 v 6.9 h -16.4 v 8.3 H 266 v 6.9 h -13.7 v 9.7 h 16.4 v 6.9 H 243.3 Z M 117,271.9 h -9 l -14.2,-24.4 -0.2,0.1 v 24.3 h -9 v -38.8 h 9 l 14.2,24.4 0.2,-0.1 v -24.3 h 9 z M 270.4,435.6 H 262 l -6.5,-23.9 h -0.2 l -6.5,23.9 h -8.5 l -8.9,-38.8 h 9.1 l 4.7,25.2 h 0.2 l 6.6,-25.2 h 6.8 l 6.6,25.1 h 0.2 l 4.7,-25.1 h 9.1 z M 272.9,272.9 168,344 239.1,239 344,168 Z m 150.4,-3.3 c -2.7,1.9 -6.2,2.9 -10.6,2.9 -4.4,0 -8.1,-1 -11.1,-3.1 -3,-2.1 -4.5,-5.3 -4.4,-9.8 l 0.1,-0.2 h 8.8 c 0,2.3 0.6,3.9 1.7,4.8 1.1,0.9 2.8,1.4 5.1,1.4 1.9,0 3.3,-0.4 4.2,-1.1 0.9,-0.7 1.4,-1.7 1.4,-2.9 0,-1.4 -0.5,-2.4 -1.4,-3.2 -0.9,-0.7 -2.5,-1.5 -4.9,-2.4 -4.8,-1.6 -8.4,-3.2 -10.7,-5 -2.3,-1.8 -3.5,-4.3 -3.5,-7.6 0,-3.2 1.4,-5.9 4.1,-7.9 2.7,-2 6.2,-3 10.4,-3 4.4,0 8,1 10.7,3.1 2.7,2.1 4,5 3.9,8.7 l -0.1,0.2 h -8.7 c 0,-1.8 -0.5,-3.2 -1.5,-4 -1,-0.8 -2.5,-1.2 -4.5,-1.2 -1.6,0 -2.9,0.4 -3.9,1.2 -0.9,0.8 -1.4,1.8 -1.4,3 0,1.1 0.5,2 1.5,2.7 1,0.7 2.8,1.5 5.4,2.6 4.5,1.3 7.9,3 10.2,4.9 2.3,1.9 3.5,4.5 3.5,7.9 -0.3,3.4 -1.6,6.1 -4.3,8 z"
           id="XMLID_348_"
           inkscape:connector-curvature="0"
           style="fill:#7f003f" />
        <circle
           cx="256"
           cy="256"
           id="XMLID_346_"
           r="11.4"
           style="fill:#7f003f" />
      </g>
    </g>
  </g>
</svg>
